<?xml version="1.0" encoding="UTF-8" standalone="no"?>
<svg
   height="40"
   width="40"
   version="1.1"
   id="svg4"
   sodipodi:docname="content_copy_FILL0_wght200_GRAD0_opsz40.svg"
   inkscape:version="1.1 (c68e22c387, 2021-05-23)"
   xmlns:inkscape="http://www.inkscape.org/namespaces/inkscape"
   xmlns:sodipodi="http://sodipodi.sourceforge.net/DTD/sodipodi-0.dtd"
   xmlns="http://www.w3.org/2000/svg"
   xmlns:svg="http://www.w3.org/2000/svg">
  <defs
     id="defs8" />
  <sodipodi:namedview
     id="namedview6"
     pagecolor="#ffffff"
     bordercolor="#666666"
     borderopacity="1.0"
     inkscape:pageshadow="2"
     inkscape:pageopacity="0.0"
     inkscape:pagecheckerboard="0"
     showgrid="false"
     inkscape:zoom="18.825"
     inkscape:cx="20.02656"
     inkscape:cy="20.02656"
     inkscape:window-width="2560"
     inkscape:window-height="1494"
     inkscape:window-x="-11"
     inkscape:window-y="-11"
     inkscape:window-maximized="1"
     inkscape:current-layer="svg4" />
  <path
     d="M15.083 29.875Q14.042 29.875 13.333 29.167Q12.625 28.458 12.625 27.417V8.458Q12.625 7.417 13.333 6.708Q14.042 6 15.083 6H29.042Q30.083 6 30.771 6.708Q31.458 7.417 31.458 8.458V27.417Q31.458 28.458 30.771 29.167Q30.083 29.875 29.042 29.875ZM15.083 28.458H29.042Q29.417 28.458 29.75 28.146Q30.083 27.833 30.083 27.417V8.458Q30.083 8.083 29.75 7.75Q29.417 7.417 29.042 7.417H15.083Q14.667 7.417 14.354 7.75Q14.042 8.083 14.042 8.458V27.417Q14.042 27.833 14.354 28.146Q14.667 28.458 15.083 28.458ZM10.583 34.333Q9.542 34.333 8.833 33.646Q8.125 32.958 8.125 31.917V12.375H9.542V31.917Q9.542 32.292 9.875 32.625Q10.208 32.958 10.583 32.958H25V34.333ZM14.042 7.417Q14.042 7.417 14.042 7.688Q14.042 7.958 14.042 8.458V27.417Q14.042 27.875 14.042 28.167Q14.042 28.458 14.042 28.458Q14.042 28.458 14.042 28.167Q14.042 27.875 14.042 27.417V8.458Q14.042 7.958 14.042 7.688Q14.042 7.417 14.042 7.417Z"
     id="path2"
     style="fill:#ffffff" />
</svg>
