<?xml version="1.0" encoding="UTF-8"?>
<svg width="47.343mm" height="7.5352mm" version="1.1" viewBox="0 0 47.343 7.5352" xmlns="http://www.w3.org/2000/svg">
 <g transform="translate(-104.36 -37.781)" fill="#fff">
  <g stroke-width=".26458">
   <path d="m106.17 37.781v4.445q0 0.66675 0.32808 1.0266 0.32809 0.35983 0.96308 0.35983 0.635 0 0.97367-0.35983 0.33866-0.35983 0.33866-1.0266v-4.445h1.8098v4.4344q0 0.99483-0.42333 1.6827-0.42334 0.68792-1.143 1.0372-0.70908 0.34925-1.5875 0.34925-0.87841 0-1.5769-0.33866-0.68791-0.34925-1.0901-1.0372-0.40216-0.6985-0.40216-1.6933v-4.4344z"/>
   <path d="m115.64 45.211-1.5452-2.8046h-0.43391v2.8046h-1.8098v-7.4295h3.0374q0.87841 0 1.4922 0.30692 0.62441 0.30692 0.93133 0.84666 0.30691 0.52916 0.30691 1.1853 0 0.74083-0.42333 1.3229-0.41275 0.58208-1.2277 0.8255l1.7145 2.9422zm-1.9791-4.0852h1.1218q0.49741 0 0.74083-0.24342 0.254-0.24342 0.254-0.68792 0-0.42333-0.254-0.66675-0.24342-0.24342-0.74083-0.24342h-1.1218z"/>
   <path d="m120.56 43.814h2.3707v1.397h-4.1804v-7.4295h1.8097z"/>
   <path d="m124.88 41.821c0.0518 0.05961 0.10744 0.11659 0.16715 0.1702 0.22859 0.19645 0.52482 0.41342 0.88834 0.65179 0.33702 0.22866 0.57374 0.41335 0.71025 0.55353 0.13893 0.13355 0.17923 0.27992 0.12098 0.43892-0.0485 0.1325-0.14841 0.21998-0.29921 0.26242-0.14175 0.03824-0.31824 0.01825-0.53024-0.05941-0.23187-0.08494-0.40591-0.21598-0.52122-0.39347-0.11529-0.17749-0.14763-0.36616-0.0971-0.56558l-1.6794-0.61522c-0.10456 0.36746-0.1008 0.73701 0.011 1.1086 0.11427 0.36496 0.32971 0.69957 0.64666 1.0035s0.71753 0.54464 1.2012 0.7218c0.4505 0.16504 0.8714 0.23633 1.2627 0.21436 0.39789-0.01955 0.73247-0.12252 1.0036-0.30874 0.28015-0.19042 0.47943-0.4479 0.59835-0.77253 0.13414-0.38667 0.14301-0.72899 0.0268-1.027-0.0137-0.03873-0.0286-0.07666-0.0442-0.11362z" fill="#8564ff"/>
   <path d="m125.89 41.699 3.4655 1.2695c-0.10627-0.25143-0.25566-0.46153-0.44918-0.6307-0.21954-0.20065-0.5156-0.42913-0.88751-0.6856-0.32863-0.21056-0.56423-0.3873-0.70735-0.5299-0.13651-0.14018-0.17568-0.28963-0.11743-0.44862 0.0485-0.1325 0.13884-0.21595 0.27155-0.25 0.13512-0.04067 0.30206-0.02473 0.50081 0.04808 0.23187 0.08494 0.39683 0.20916 0.4947 0.37275 0.10451 0.16602 0.1349 0.35049 0.091 0.55232l1.5702 0.57522c0.1491-0.59159 0.0846-1.1341-0.1933-1.6266-0.27129-0.49012-0.75465-0.86258-1.4503-1.1174-0.47036-0.17231-0.90569-0.2454-1.306-0.21923-0.3937 0.0286-0.72893 0.1429-1.0049 0.34238-0.2669 0.19528-0.45823 0.45163-0.57473 0.76963-0.13834 0.37762-0.15272 0.71442-0.0431 1.0101 0.0825 0.21271 0.19573 0.40198 0.34001 0.56814z" fill="#8564ff"/>
  </g>
  <g stroke-width=".19948">
   <path d="m133.5 40.71q0.76601 0 1.2288 0.51067 0.46279 0.50269 0.46279 1.3884v2.6012h-1.3565v-2.4177q0-0.44684-0.23139-0.6942-0.2314-0.24736-0.62239-0.24736-0.39098 0-0.62238 0.24736-0.23139 0.24736-0.23139 0.6942v2.4177h-1.3645v-5.9046h1.3645v2.0507q0.20745-0.29523 0.56652-0.47078 0.35907-0.17554 0.8059-0.17554z"/>
   <path d="m137.51 41.5q0.23938-0.36705 0.59844-0.57451 0.35906-0.21544 0.79793-0.21544v1.4442h-0.37503q-0.51067 0-0.76601 0.22342-0.25533 0.21544-0.25533 0.76601v2.0666h-1.3645v-4.4524h1.3645z"/>
   <path d="m140.24 40.295q-0.35907 0-0.59047-0.20746-0.22342-0.21544-0.22342-0.52663 0-0.31917 0.22342-0.52663 0.2314-0.21544 0.59047-0.21544 0.35108 0 0.5745 0.21544 0.2314 0.20746 0.2314 0.52663 0 0.31119-0.2314 0.52663-0.22342 0.20746-0.5745 0.20746zm0.67824 0.4628v4.4524h-1.3645v-4.4524z"/>
   <path d="m144.62 40.71q0.78198 0 1.2448 0.51067 0.47077 0.50269 0.47077 1.3884v2.6012h-1.3565v-2.4177q0-0.44684-0.23139-0.6942-0.2314-0.24736-0.62239-0.24736-0.39098 0-0.62238 0.24736-0.23139 0.24736-0.23139 0.6942v2.4177h-1.3645v-4.4524h1.3645v0.59046q0.20745-0.29523 0.55854-0.4628 0.35109-0.17554 0.78994-0.17554z"/>
   <path d="m150.01 45.211-1.3565-1.8671v1.8671h-1.3644v-5.9046h1.3644v3.2635l1.3485-1.8113h1.6836l-1.8512 2.2342 1.8671 2.2182z"/>
  </g>
 </g>
</svg>
